<svg xmlns="http://www.w3.org/2000/svg" viewBox="0 0 670.5600000000001 670.5600000000001"><rect width="670.5600000000001" height="670.5600000000001" fill="#313131" id="bg" class="bg"/><g><g transform="translate(0.00,&#10;                                0.00) rotate(180, 33.528000000000006, 33.528000000000006)"><svg xmlns="http://www.w3.org/2000/svg" id="Layer_1" data-name="Layer 1" viewBox="0 0 100 100" width="67.05600000000001" height="67.05600000000001"><path d="M50,100a50,50,0,1,1,50-50v50Z" fill="#cecece"/></svg></g><g transform="translate(67.06,&#10;                                0.00) rotate(0, 33.528000000000006, 33.528000000000006)"><svg xmlns="http://www.w3.org/2000/svg" id="Layer_1" data-name="Layer 1" viewBox="0 0 100 100" width="67.05600000000001" height="67.05600000000001"><path d="M50,100h0A50,50,0,0,1,0,50V0H100V50A50,50,0,0,1,50,100Z" fill="#4ebab7"/></svg></g><g transform="translate(134.11,&#10;                                0.00) rotate(180, 33.528000000000006, 33.528000000000006)"><svg xmlns="http://www.w3.org/2000/svg" id="Layer_1" data-name="Layer 1" viewBox="0 0 100 100" width="67.05600000000001" height="67.05600000000001"><path d="M100,100A50,50,0,0,0,0,100Z" fill="#f19d7e"/></svg></g><g transform="translate(134.11,&#10;                                67.06) rotate(180, 33.528000000000006, 33.528000000000006)"><svg xmlns="http://www.w3.org/2000/svg" id="Layer_1" data-name="Layer 1" viewBox="0 0 100 100" width="67.05600000000001" height="67.05600000000001"><circle cx="50" cy="50" r="50" fill="#ffffff"/></svg></g><g transform="translate(201.17,&#10;                                67.06) rotate(270, 33.528000000000006, 33.528000000000006)"><svg xmlns="http://www.w3.org/2000/svg" id="Layer_1" data-name="Layer 1" viewBox="0 0 100 100" width="67.05600000000001" height="67.05600000000001"><path d="M50,100a50,50,0,1,1,50-50v50Z" fill="#cecece"/></svg></g><g transform="translate(268.22,&#10;                                0.00) rotate(180, 33.528000000000006, 33.528000000000006)"><svg xmlns="http://www.w3.org/2000/svg" id="Layer_1" data-name="Layer 1" viewBox="0 0 100 100" width="67.05600000000001" height="67.05600000000001"><path d="M100,100A50,50,0,0,0,0,100Z" fill="#f19d7e"/></svg></g><g transform="translate(335.28,&#10;                                0.00) rotate(180, 33.528000000000006, 33.528000000000006)"><svg xmlns="http://www.w3.org/2000/svg" id="Layer_1" data-name="Layer 1" viewBox="0 0 100 100" width="67.05600000000001" height="67.05600000000001"><path d="M50,100a50,50,0,1,1,50-50v50Z" fill="#cecece"/></svg></g><g transform="translate(268.22,&#10;                                67.06) rotate(0, 33.528000000000006, 33.528000000000006)"><svg xmlns="http://www.w3.org/2000/svg" id="Layer_1" data-name="Layer 1" viewBox="0 0 100 100" width="67.05600000000001" height="67.05600000000001"><circle cx="50" cy="50" r="50" fill="#ffffff"/></svg></g><g transform="translate(402.34,&#10;                                0.00) rotate(0, 33.528000000000006, 33.528000000000006)"><svg xmlns="http://www.w3.org/2000/svg" id="Layer_1" data-name="Layer 1" viewBox="0 0 100 100" width="67.05600000000001" height="67.05600000000001"><path d="M100,100A50,50,0,0,0,0,100Z" fill="#f19d7e"/></svg></g><g transform="translate(469.39,&#10;                                0.00) rotate(0, 33.528000000000006, 33.528000000000006)"><svg xmlns="http://www.w3.org/2000/svg" id="Layer_1" data-name="Layer 1" viewBox="0 0 100 100" width="67.05600000000001" height="67.05600000000001"><path d="M100,100A50,50,0,0,0,0,100Z" fill="#f19d7e"/></svg></g><g transform="translate(536.45,&#10;                                0.00) rotate(90, 33.528000000000006, 33.528000000000006)"><svg xmlns="http://www.w3.org/2000/svg" id="Layer_1" data-name="Layer 1" viewBox="0 0 100 100" width="67.05600000000001" height="67.05600000000001"><path d="M50,100a50,50,0,1,1,50-50v50Z" fill="#cecece"/></svg></g><g transform="translate(603.50,&#10;                                0.00) rotate(0, 33.528000000000006, 33.528000000000006)"><svg xmlns="http://www.w3.org/2000/svg" id="Layer_1" data-name="Layer 1" viewBox="0 0 100 100" width="67.05600000000001" height="67.05600000000001"><path d="M50,100a50,50,0,1,1,50-50v50Z" fill="#cecece"/></svg></g><g transform="translate(536.45,&#10;                                67.06) rotate(0, 33.528000000000006, 33.528000000000006)"><svg xmlns="http://www.w3.org/2000/svg" id="Layer_1" data-name="Layer 1" viewBox="0 0 100 100" width="67.05600000000001" height="67.05600000000001"><path d="M50,100h0A50,50,0,0,1,0,50V0H100V50A50,50,0,0,1,50,100Z" fill="#4ebab7"/></svg></g></g><g><g transform="translate(67.06,&#10;                                134.11) rotate(90, 33.528000000000006, 33.528000000000006)"><svg xmlns="http://www.w3.org/2000/svg" id="Layer_1" data-name="Layer 1" viewBox="0 0 100 100" width="67.05600000000001" height="67.05600000000001"><path d="M50,100h0A50,50,0,0,1,0,50V0H100V50A50,50,0,0,1,50,100Z" fill="#4ebab7"/></svg></g><g transform="translate(134.11,&#10;                                134.11) rotate(270, 33.528000000000006, 33.528000000000006)"><svg xmlns="http://www.w3.org/2000/svg" id="Layer_1" data-name="Layer 1" viewBox="0 0 100 100" width="67.05600000000001" height="67.05600000000001"><path d="M50,100a50,50,0,1,1,50-50v50Z" fill="#cecece"/></svg></g><g transform="translate(201.17,&#10;                                134.11) rotate(90, 33.528000000000006, 33.528000000000006)"><svg xmlns="http://www.w3.org/2000/svg" id="Layer_1" data-name="Layer 1" viewBox="0 0 100 100" width="67.05600000000001" height="67.05600000000001"><path d="M50,100h0A50,50,0,0,1,0,50V0H100V50A50,50,0,0,1,50,100Z" fill="#4ebab7"/></svg></g><g transform="translate(134.11,&#10;                                201.17) rotate(90, 33.528000000000006, 33.528000000000006)"><svg xmlns="http://www.w3.org/2000/svg" id="Layer_1" data-name="Layer 1" viewBox="0 0 100 100" width="67.05600000000001" height="67.05600000000001"><path d="M50,100a50,50,0,1,1,50-50v50Z" fill="#cecece"/></svg></g><g transform="translate(201.17,&#10;                                201.17) rotate(0, 33.528000000000006, 33.528000000000006)"><svg xmlns="http://www.w3.org/2000/svg" id="Layer_1" data-name="Layer 1" viewBox="0 0 100 100" width="67.05600000000001" height="67.05600000000001"><circle cx="50" cy="50" r="50" fill="#ffffff"/></svg></g><g transform="translate(268.22,&#10;                                134.11) rotate(180, 33.528000000000006, 33.528000000000006)"><svg xmlns="http://www.w3.org/2000/svg" id="Layer_1" data-name="Layer 1" viewBox="0 0 100 100" width="67.05600000000001" height="67.05600000000001"><path d="M50,100a50,50,0,1,1,50-50v50Z" fill="#cecece"/></svg></g><g transform="translate(335.28,&#10;                                134.11) rotate(90, 33.528000000000006, 33.528000000000006)"><svg xmlns="http://www.w3.org/2000/svg" id="Layer_1" data-name="Layer 1" viewBox="0 0 100 100" width="67.05600000000001" height="67.05600000000001"><path d="M50,100a50,50,0,1,1,50-50v50Z" fill="#cecece"/></svg></g><g transform="translate(335.28,&#10;                                201.17) rotate(180, 33.528000000000006, 33.528000000000006)"><svg xmlns="http://www.w3.org/2000/svg" id="Layer_1" data-name="Layer 1" viewBox="0 0 100 100" width="67.05600000000001" height="67.05600000000001"><circle cx="50" cy="50" r="50" fill="#ffffff"/></svg></g><g transform="translate(402.34,&#10;                                134.11) rotate(90, 33.528000000000006, 33.528000000000006)"><svg xmlns="http://www.w3.org/2000/svg" id="Layer_1" data-name="Layer 1" viewBox="0 0 100 100" width="67.05600000000001" height="67.05600000000001"><path d="M100,100A50,50,0,0,0,0,100Z" fill="#f19d7e"/></svg></g><g transform="translate(469.39,&#10;                                134.11) rotate(0, 33.528000000000006, 33.528000000000006)"><svg xmlns="http://www.w3.org/2000/svg" id="Layer_1" data-name="Layer 1" viewBox="0 0 100 100" width="67.05600000000001" height="67.05600000000001"><path d="M100,100A50,50,0,0,0,0,100Z" fill="#f19d7e"/></svg></g><g transform="translate(402.34,&#10;                                201.17) rotate(180, 33.528000000000006, 33.528000000000006)"><svg xmlns="http://www.w3.org/2000/svg" id="Layer_1" data-name="Layer 1" viewBox="0 0 100 100" width="67.05600000000001" height="67.05600000000001"><path d="M50,100a50,50,0,1,1,50-50v50Z" fill="#cecece"/></svg></g><g transform="translate(536.45,&#10;                                134.11) rotate(0, 33.528000000000006, 33.528000000000006)"><svg xmlns="http://www.w3.org/2000/svg" id="Layer_1" data-name="Layer 1" viewBox="0 0 100 100" width="67.05600000000001" height="67.05600000000001"><path d="M50,100h0A50,50,0,0,1,0,50V0H100V50A50,50,0,0,1,50,100Z" fill="#4ebab7"/></svg></g><g transform="translate(603.50,&#10;                                201.17) rotate(270, 33.528000000000006, 33.528000000000006)"><svg xmlns="http://www.w3.org/2000/svg" id="Layer_1" data-name="Layer 1" viewBox="0 0 100 100" width="67.05600000000001" height="67.05600000000001"><circle cx="50" cy="50" r="50" fill="#ffffff"/></svg></g></g><g><g transform="translate(67.06,&#10;                                268.22) rotate(180, 33.528000000000006, 33.528000000000006)"><svg xmlns="http://www.w3.org/2000/svg" id="Layer_1" data-name="Layer 1" viewBox="0 0 100 100" width="67.05600000000001" height="67.05600000000001"><path d="M50,100h0A50,50,0,0,1,0,50V0H100V50A50,50,0,0,1,50,100Z" fill="#4ebab7"/></svg></g><g transform="translate(0.00,&#10;                                335.28) rotate(180, 33.528000000000006, 33.528000000000006)"><svg xmlns="http://www.w3.org/2000/svg" id="Layer_1" data-name="Layer 1" viewBox="0 0 100 100" width="67.05600000000001" height="67.05600000000001"><circle cx="50" cy="50" r="50" fill="#ffffff"/></svg></g><g transform="translate(134.11,&#10;                                268.22) rotate(180, 33.528000000000006, 33.528000000000006)"><svg xmlns="http://www.w3.org/2000/svg" id="Layer_1" data-name="Layer 1" viewBox="0 0 100 100" width="67.05600000000001" height="67.05600000000001"><path d="M50,100a50,50,0,1,1,50-50v50Z" fill="#cecece"/></svg></g><g transform="translate(201.17,&#10;                                268.22) rotate(180, 33.528000000000006, 33.528000000000006)"><svg xmlns="http://www.w3.org/2000/svg" id="Layer_1" data-name="Layer 1" viewBox="0 0 100 100" width="67.05600000000001" height="67.05600000000001"><path d="M100,100A50,50,0,0,0,0,100Z" fill="#f19d7e"/></svg></g><g transform="translate(268.22,&#10;                                268.22) rotate(0, 33.528000000000006, 33.528000000000006)"><svg xmlns="http://www.w3.org/2000/svg" id="Layer_1" data-name="Layer 1" viewBox="0 0 100 100" width="67.05600000000001" height="67.05600000000001"><path d="M50,100a50,50,0,1,1,50-50v50Z" fill="#cecece"/></svg></g><g transform="translate(335.28,&#10;                                268.22) rotate(270, 33.528000000000006, 33.528000000000006)"><svg xmlns="http://www.w3.org/2000/svg" id="Layer_1" data-name="Layer 1" viewBox="0 0 100 100" width="67.05600000000001" height="67.05600000000001"><path d="M50,100h0A50,50,0,0,1,0,50V0H100V50A50,50,0,0,1,50,100Z" fill="#4ebab7"/></svg></g><g transform="translate(268.22,&#10;                                335.28) rotate(90, 33.528000000000006, 33.528000000000006)"><svg xmlns="http://www.w3.org/2000/svg" id="Layer_1" data-name="Layer 1" viewBox="0 0 100 100" width="67.05600000000001" height="67.05600000000001"><circle cx="50" cy="50" r="50" fill="#ffffff"/></svg></g><g transform="translate(335.28,&#10;                                335.28) rotate(270, 33.528000000000006, 33.528000000000006)"><svg xmlns="http://www.w3.org/2000/svg" id="Layer_1" data-name="Layer 1" viewBox="0 0 100 100" width="67.05600000000001" height="67.05600000000001"><path d="M50,100a50,50,0,1,1,50-50v50Z" fill="#cecece"/></svg></g><g transform="translate(402.34,&#10;                                268.22) rotate(90, 33.528000000000006, 33.528000000000006)"><svg xmlns="http://www.w3.org/2000/svg" id="Layer_1" data-name="Layer 1" viewBox="0 0 100 100" width="67.05600000000001" height="67.05600000000001"><path d="M50,100h0A50,50,0,0,1,0,50V0H100V50A50,50,0,0,1,50,100Z" fill="#4ebab7"/></svg></g><g transform="translate(469.39,&#10;                                268.22) rotate(90, 33.528000000000006, 33.528000000000006)"><svg xmlns="http://www.w3.org/2000/svg" id="Layer_1" data-name="Layer 1" viewBox="0 0 100 100" width="67.05600000000001" height="67.05600000000001"><path d="M50,100h0A50,50,0,0,1,0,50V0H100V50A50,50,0,0,1,50,100Z" fill="#4ebab7"/></svg></g><g transform="translate(402.34,&#10;                                335.28) rotate(90, 33.528000000000006, 33.528000000000006)"><svg xmlns="http://www.w3.org/2000/svg" id="Layer_1" data-name="Layer 1" viewBox="0 0 100 100" width="67.05600000000001" height="67.05600000000001"><circle cx="50" cy="50" r="50" fill="#ffffff"/></svg></g><g transform="translate(469.39,&#10;                                335.28) rotate(0, 33.528000000000006, 33.528000000000006)"><svg xmlns="http://www.w3.org/2000/svg" id="Layer_1" data-name="Layer 1" viewBox="0 0 100 100" width="67.05600000000001" height="67.05600000000001"><circle cx="50" cy="50" r="50" fill="#ffffff"/></svg></g><g transform="translate(536.45,&#10;                                268.22) rotate(90, 33.528000000000006, 33.528000000000006)"><svg xmlns="http://www.w3.org/2000/svg" id="Layer_1" data-name="Layer 1" viewBox="0 0 100 100" width="67.05600000000001" height="67.05600000000001"><path d="M100,100A50,50,0,0,0,0,100Z" fill="#f19d7e"/></svg></g><g transform="translate(603.50,&#10;                                268.22) rotate(90, 33.528000000000006, 33.528000000000006)"><svg xmlns="http://www.w3.org/2000/svg" id="Layer_1" data-name="Layer 1" viewBox="0 0 100 100" width="67.05600000000001" height="67.05600000000001"><path d="M50,100a50,50,0,1,1,50-50v50Z" fill="#cecece"/></svg></g><g transform="translate(536.45,&#10;                                335.28) rotate(0, 33.528000000000006, 33.528000000000006)"><svg xmlns="http://www.w3.org/2000/svg" id="Layer_1" data-name="Layer 1" viewBox="0 0 100 100" width="67.05600000000001" height="67.05600000000001"><circle cx="50" cy="50" r="50" fill="#ffffff"/></svg></g></g><g><g transform="translate(0.00,&#10;                                402.34) rotate(180, 33.528000000000006, 33.528000000000006)"><svg xmlns="http://www.w3.org/2000/svg" id="Layer_1" data-name="Layer 1" viewBox="0 0 100 100" width="67.05600000000001" height="67.05600000000001"><path d="M100,100A50,50,0,0,0,0,100Z" fill="#f19d7e"/></svg></g><g transform="translate(67.06,&#10;                                402.34) rotate(180, 33.528000000000006, 33.528000000000006)"><svg xmlns="http://www.w3.org/2000/svg" id="Layer_1" data-name="Layer 1" viewBox="0 0 100 100" width="67.05600000000001" height="67.05600000000001"><path d="M50,100a50,50,0,1,1,50-50v50Z" fill="#cecece"/></svg></g><g transform="translate(0.00,&#10;                                469.39) rotate(270, 33.528000000000006, 33.528000000000006)"><svg xmlns="http://www.w3.org/2000/svg" id="Layer_1" data-name="Layer 1" viewBox="0 0 100 100" width="67.05600000000001" height="67.05600000000001"><path d="M50,100h0A50,50,0,0,1,0,50V0H100V50A50,50,0,0,1,50,100Z" fill="#4ebab7"/></svg></g><g transform="translate(201.17,&#10;                                402.34) rotate(0, 33.528000000000006, 33.528000000000006)"><svg xmlns="http://www.w3.org/2000/svg" id="Layer_1" data-name="Layer 1" viewBox="0 0 100 100" width="67.05600000000001" height="67.05600000000001"><path d="M50,100h0A50,50,0,0,1,0,50V0H100V50A50,50,0,0,1,50,100Z" fill="#4ebab7"/></svg></g><g transform="translate(201.17,&#10;                                469.39) rotate(270, 33.528000000000006, 33.528000000000006)"><svg xmlns="http://www.w3.org/2000/svg" id="Layer_1" data-name="Layer 1" viewBox="0 0 100 100" width="67.05600000000001" height="67.05600000000001"><circle cx="50" cy="50" r="50" fill="#ffffff"/></svg></g><g transform="translate(335.28,&#10;                                402.34) rotate(90, 33.528000000000006, 33.528000000000006)"><svg xmlns="http://www.w3.org/2000/svg" id="Layer_1" data-name="Layer 1" viewBox="0 0 100 100" width="67.05600000000001" height="67.05600000000001"><path d="M50,100h0A50,50,0,0,1,0,50V0H100V50A50,50,0,0,1,50,100Z" fill="#4ebab7"/></svg></g><g transform="translate(268.22,&#10;                                469.39) rotate(0, 33.528000000000006, 33.528000000000006)"><svg xmlns="http://www.w3.org/2000/svg" id="Layer_1" data-name="Layer 1" viewBox="0 0 100 100" width="67.05600000000001" height="67.05600000000001"><circle cx="50" cy="50" r="50" fill="#ffffff"/></svg></g><g transform="translate(402.34,&#10;                                402.34) rotate(270, 33.528000000000006, 33.528000000000006)"><svg xmlns="http://www.w3.org/2000/svg" id="Layer_1" data-name="Layer 1" viewBox="0 0 100 100" width="67.05600000000001" height="67.05600000000001"><path d="M50,100a50,50,0,1,1,50-50v50Z" fill="#cecece"/></svg></g><g transform="translate(469.39,&#10;                                469.39) rotate(270, 33.528000000000006, 33.528000000000006)"><svg xmlns="http://www.w3.org/2000/svg" id="Layer_1" data-name="Layer 1" viewBox="0 0 100 100" width="67.05600000000001" height="67.05600000000001"><circle cx="50" cy="50" r="50" fill="#ffffff"/></svg></g><g transform="translate(536.45,&#10;                                402.34) rotate(90, 33.528000000000006, 33.528000000000006)"><svg xmlns="http://www.w3.org/2000/svg" id="Layer_1" data-name="Layer 1" viewBox="0 0 100 100" width="67.05600000000001" height="67.05600000000001"><path d="M100,100A50,50,0,0,0,0,100Z" fill="#f19d7e"/></svg></g><g transform="translate(603.50,&#10;                                402.34) rotate(270, 33.528000000000006, 33.528000000000006)"><svg xmlns="http://www.w3.org/2000/svg" id="Layer_1" data-name="Layer 1" viewBox="0 0 100 100" width="67.05600000000001" height="67.05600000000001"><path d="M50,100h0A50,50,0,0,1,0,50V0H100V50A50,50,0,0,1,50,100Z" fill="#4ebab7"/></svg></g><g transform="translate(536.45,&#10;                                469.39) rotate(180, 33.528000000000006, 33.528000000000006)"><svg xmlns="http://www.w3.org/2000/svg" id="Layer_1" data-name="Layer 1" viewBox="0 0 100 100" width="67.05600000000001" height="67.05600000000001"><circle cx="50" cy="50" r="50" fill="#ffffff"/></svg></g></g><g><g transform="translate(0.00,&#10;                                536.45) rotate(0, 33.528000000000006, 33.528000000000006)"><svg xmlns="http://www.w3.org/2000/svg" id="Layer_1" data-name="Layer 1" viewBox="0 0 100 100" width="67.05600000000001" height="67.05600000000001"><path d="M50,100a50,50,0,1,1,50-50v50Z" fill="#cecece"/></svg></g><g transform="translate(67.06,&#10;                                536.45) rotate(0, 33.528000000000006, 33.528000000000006)"><svg xmlns="http://www.w3.org/2000/svg" id="Layer_1" data-name="Layer 1" viewBox="0 0 100 100" width="67.05600000000001" height="67.05600000000001"><path d="M50,100h0A50,50,0,0,1,0,50V0H100V50A50,50,0,0,1,50,100Z" fill="#4ebab7"/></svg></g><g transform="translate(0.00,&#10;                                603.50) rotate(180, 33.528000000000006, 33.528000000000006)"><svg xmlns="http://www.w3.org/2000/svg" id="Layer_1" data-name="Layer 1" viewBox="0 0 100 100" width="67.05600000000001" height="67.05600000000001"><circle cx="50" cy="50" r="50" fill="#ffffff"/></svg></g><g transform="translate(134.11,&#10;                                536.45) rotate(270, 33.528000000000006, 33.528000000000006)"><svg xmlns="http://www.w3.org/2000/svg" id="Layer_1" data-name="Layer 1" viewBox="0 0 100 100" width="67.05600000000001" height="67.05600000000001"><path d="M100,100A50,50,0,0,0,0,100Z" fill="#f19d7e"/></svg></g><g transform="translate(201.17,&#10;                                536.45) rotate(0, 33.528000000000006, 33.528000000000006)"><svg xmlns="http://www.w3.org/2000/svg" id="Layer_1" data-name="Layer 1" viewBox="0 0 100 100" width="67.05600000000001" height="67.05600000000001"><path d="M100,100A50,50,0,0,0,0,100Z" fill="#f19d7e"/></svg></g><g transform="translate(268.22,&#10;                                536.45) rotate(270, 33.528000000000006, 33.528000000000006)"><svg xmlns="http://www.w3.org/2000/svg" id="Layer_1" data-name="Layer 1" viewBox="0 0 100 100" width="67.05600000000001" height="67.05600000000001"><path d="M50,100h0A50,50,0,0,1,0,50V0H100V50A50,50,0,0,1,50,100Z" fill="#4ebab7"/></svg></g><g transform="translate(335.28,&#10;                                536.45) rotate(90, 33.528000000000006, 33.528000000000006)"><svg xmlns="http://www.w3.org/2000/svg" id="Layer_1" data-name="Layer 1" viewBox="0 0 100 100" width="67.05600000000001" height="67.05600000000001"><path d="M50,100h0A50,50,0,0,1,0,50V0H100V50A50,50,0,0,1,50,100Z" fill="#4ebab7"/></svg></g><g transform="translate(402.34,&#10;                                536.45) rotate(270, 33.528000000000006, 33.528000000000006)"><svg xmlns="http://www.w3.org/2000/svg" id="Layer_1" data-name="Layer 1" viewBox="0 0 100 100" width="67.05600000000001" height="67.05600000000001"><path d="M100,100A50,50,0,0,0,0,100Z" fill="#f19d7e"/></svg></g><g transform="translate(469.39,&#10;                                536.45) rotate(0, 33.528000000000006, 33.528000000000006)"><svg xmlns="http://www.w3.org/2000/svg" id="Layer_1" data-name="Layer 1" viewBox="0 0 100 100" width="67.05600000000001" height="67.05600000000001"><path d="M50,100a50,50,0,1,1,50-50v50Z" fill="#cecece"/></svg></g><g transform="translate(402.34,&#10;                                603.50) rotate(0, 33.528000000000006, 33.528000000000006)"><svg xmlns="http://www.w3.org/2000/svg" id="Layer_1" data-name="Layer 1" viewBox="0 0 100 100" width="67.05600000000001" height="67.05600000000001"><path d="M50,100h0A50,50,0,0,1,0,50V0H100V50A50,50,0,0,1,50,100Z" fill="#4ebab7"/></svg></g><g transform="translate(536.45,&#10;                                536.45) rotate(270, 33.528000000000006, 33.528000000000006)"><svg xmlns="http://www.w3.org/2000/svg" id="Layer_1" data-name="Layer 1" viewBox="0 0 100 100" width="67.05600000000001" height="67.05600000000001"><path d="M100,100A50,50,0,0,0,0,100Z" fill="#f19d7e"/></svg></g><g transform="translate(603.50,&#10;                                536.45) rotate(0, 33.528000000000006, 33.528000000000006)"><svg xmlns="http://www.w3.org/2000/svg" id="Layer_1" data-name="Layer 1" viewBox="0 0 100 100" width="67.05600000000001" height="67.05600000000001"><path d="M50,100h0A50,50,0,0,1,0,50V0H100V50A50,50,0,0,1,50,100Z" fill="#4ebab7"/></svg></g><g transform="translate(536.45,&#10;                                603.50) rotate(270, 33.528000000000006, 33.528000000000006)"><svg xmlns="http://www.w3.org/2000/svg" id="Layer_1" data-name="Layer 1" viewBox="0 0 100 100" width="67.05600000000001" height="67.05600000000001"><circle cx="50" cy="50" r="50" fill="#ffffff"/></svg></g><g transform="translate(603.50,&#10;                                603.50) rotate(0, 33.528000000000006, 33.528000000000006)"><svg xmlns="http://www.w3.org/2000/svg" id="Layer_1" data-name="Layer 1" viewBox="0 0 100 100" width="67.05600000000001" height="67.05600000000001"><path d="M50,100a50,50,0,1,1,50-50v50Z" fill="#cecece"/></svg></g></g></svg>