<svg width="866" height="683" viewBox="0 0 866 683" fill="none" xmlns="http://www.w3.org/2000/svg">
<path d="M754.97 207.41L810.95 261.99" stroke="#74F587" stroke-linecap="round" stroke-linejoin="round"/>
<path d="M739.648 253.494C748.655 252.35 755.03 244.121 753.885 235.113C752.741 226.106 744.512 219.732 735.504 220.876C726.497 222.021 720.123 230.25 721.267 239.257C722.412 248.264 730.641 254.638 739.648 253.494Z" fill="#74F587" stroke="#002346" stroke-miterlimit="10"/>
<path d="M764.44 207.41L820.41 261.99" stroke="#74F587" stroke-linecap="round" stroke-linejoin="round"/>
<path d="M778.03 370.93L812.54 261.99" stroke="#74F587" stroke-linecap="round" stroke-linejoin="round"/>
<path d="M784.82 370.93L820.41 261.99" stroke="#74F587" stroke-linecap="round" stroke-linejoin="round"/>
<path d="M820.73 260.05H810.4C808.103 260.05 806.24 261.913 806.24 264.21V266.51C806.24 268.808 808.103 270.67 810.4 270.67H820.73C823.027 270.67 824.89 268.808 824.89 266.51V264.21C824.89 261.913 823.027 260.05 820.73 260.05Z" fill="#74F587" stroke="#002346" stroke-miterlimit="10"/>
<path d="M797.33 359.98H762.61V374.77H797.33V359.98Z" fill="#74F587" stroke="#0D2445" stroke-miterlimit="10"/>
<path d="M797.33 374.77H811.62V359.98H797.33V374.77Z" fill="#74F587" stroke="#002346" stroke-miterlimit="10"/>
<path d="M745.74 209.33L762.42 222.2C762.42 222.2 771.97 208.74 764.15 202.71C756.33 196.68 745.73 209.33 745.73 209.33H745.74Z" fill="#74F587" stroke="#002346" stroke-miterlimit="10"/>
<path d="M717.28 216.02L763.18 251.43C763.18 251.43 777.54 229.85 756.03 213.25C734.52 196.65 717.28 216.02 717.28 216.02Z" fill="#74F587" stroke="#0D2445" stroke-miterlimit="10"/>
<path d="M491.63 315.4H397.07V374.77H491.63V315.4Z" fill="#74F587" stroke="#002346" stroke-miterlimit="10"/>
<path d="M491.63 374.77H540.15V315.4H491.63V374.77Z" fill="#74F587" stroke="#002346" stroke-miterlimit="10"/>
<path d="M466.14 296.04H371.58V315.4H466.14V296.04Z" fill="#74F587" stroke="#002346" stroke-miterlimit="10"/>
<path d="M466.15 315.4H514.67V296.04H466.15V315.4Z" fill="#74F587" stroke="#002346" stroke-miterlimit="10"/>
<path d="M479.53 332.73H434.94L467.35 350.3L479.53 332.73Z" fill="#74F587" stroke="#002346" stroke-miterlimit="10"/>
<path d="M502.51 350.3L513.46 360.9L534.26 350.3H502.51Z" fill="#74F587" stroke="#002346" stroke-miterlimit="10"/>
<path d="M488.82 332.59H416.48" stroke="#74F587" stroke-linecap="round" stroke-linejoin="round"/>
<path d="M455.52 362.28H405.14" stroke="#74F587" stroke-linecap="round" stroke-linejoin="round"/>
<path d="M491.63 350.3H537.7" stroke="#74F587" stroke-linecap="round" stroke-linejoin="round"/>
<path d="M383.91 304.66H466.14" stroke="#74F587" stroke-linecap="round" stroke-linejoin="round"/>
<path d="M507.14 304.66H466.14" stroke="#74F587" stroke-linecap="round" stroke-linejoin="round"/>
<path d="M762.74 293.29H662.53C659.94 293.29 657.62 295.1 656.72 297.83L632.82 370.12H564.27C561.8 370.12 559.81 372.36 559.81 375.13H740.59L765.94 298.45C766.77 295.95 765.12 293.29 762.74 293.29Z" fill="white" stroke="#002346" stroke-miterlimit="10"/>
<path d="M745.52 375.12H636.1L661.65 297.82C662.55 295.09 664.87 293.28 667.46 293.28H767.67C770.05 293.28 771.69 295.94 770.87 298.44L745.52 375.12Z" fill="white" stroke="#0D2445" stroke-miterlimit="10"/>
<path d="M716.45 335.43C716.45 338.87 713.15 341.66 709.07 341.66C704.99 341.66 701.69 338.87 701.69 335.43C701.69 331.99 704.99 329.2 709.07 329.2C713.15 329.2 716.45 331.99 716.45 335.43Z" fill="white" stroke="#002346" stroke-miterlimit="10"/>
<path d="M744.15 345.1H755.22C757.28 345.1 758.96 346.77 758.96 348.84V359.65C758.96 361.71 757.29 363.39 755.22 363.39H744.15V345.11V345.1Z" stroke="#74F587" stroke-linecap="round" stroke-linejoin="round"/>
<path d="M748.53 367.6H729.89V373.96H748.53V367.6Z" fill="#74F587" stroke="#002346" stroke-miterlimit="10"/>
<path d="M729.89 370.78H748.53" stroke="#002346" stroke-miterlimit="10"/>
<path d="M726.3 338.27H752.11V367.26C752.11 369.33 750.43 371.02 748.35 371.02H730.05C727.98 371.02 726.29 369.34 726.29 367.26V338.27H726.3Z" fill="#74F587" stroke="#002346" stroke-miterlimit="10"/>
<path d="M388.63 374.77H833.14" stroke="#74F587" stroke-linecap="round" stroke-linejoin="round"/>
<path d="M409.65 374.93L480.79 615.42" stroke="#74F587" stroke-linecap="round" stroke-linejoin="round"/>
<path d="M452.35 374.93L381.22 615.42" stroke="#74F587" stroke-linecap="round" stroke-linejoin="round"/>
<path d="M774.3 374.93L845.43 615.42" stroke="#74F587" stroke-linecap="round" stroke-linejoin="round"/>
<path d="M817 374.93L745.87 615.42" stroke="#74F587" stroke-linecap="round" stroke-linejoin="round"/>
<path d="M764.5 139.41C795.98 139.41 821.5 113.89 821.5 82.4102C821.5 50.9299 795.98 25.4102 764.5 25.4102C733.02 25.4102 707.5 50.9299 707.5 82.4102C707.5 113.89 733.02 139.41 764.5 139.41Z" fill="#E3E4E5" stroke="#002346" stroke-miterlimit="10"/>
<path d="M764.5 131.41C791.562 131.41 813.5 109.472 813.5 82.4102C813.5 55.3482 791.562 33.4102 764.5 33.4102C737.438 33.4102 715.5 55.3482 715.5 82.4102C715.5 109.472 737.438 131.41 764.5 131.41Z" fill="white" stroke="#002346" stroke-miterlimit="10"/>
<path d="M760.5 58.4102V90.4102H784.5" stroke="#002346" stroke-linecap="round" stroke-linejoin="round"/>
<path d="M377.01 235.47C380.871 235.47 384 232.341 384 228.48C384 224.62 380.871 221.49 377.01 221.49C373.15 221.49 370.02 224.62 370.02 228.48C370.02 232.341 373.15 235.47 377.01 235.47Z" fill="#07974F" stroke="#002346" stroke-miterlimit="10"/>
<path d="M415.24 83.5503H51.96V103.13H415.24V83.5503Z" fill="#E3E4E5" stroke="#002346" stroke-miterlimit="10"/>
<path d="M415.24 122.88H51.96V143.54H415.24V122.88Z" fill="#E3E4E5" stroke="#002346" stroke-miterlimit="10"/>
<path d="M415.24 143.54H51.96V164.21H415.24V143.54Z" fill="white" stroke="#002346" stroke-miterlimit="10"/>
<path d="M42.6401 61.6401V523.7H426.44V61.6401H42.6401ZM412.96 501.32H54.8701V83.5501H412.96V501.32Z" fill="white" stroke="#002346" stroke-miterlimit="10"/>
<path d="M376.62 164.95V221.57" stroke="#002346" stroke-linecap="round" stroke-linejoin="round"/>
<path d="M451.82 523.47H20.3301V557.04H451.82V523.47Z" fill="white" stroke="#002346" stroke-miterlimit="10"/>
<path d="M436.4 26.21H162.01C144.287 26.21 129.92 40.5771 129.92 58.3V626.12C129.92 643.843 144.287 658.21 162.01 658.21H436.4C454.123 658.21 468.49 643.843 468.49 626.12V58.3C468.49 40.5771 454.123 26.21 436.4 26.21Z" fill="#07974F" stroke="#0D2445" stroke-miterlimit="10"/>
<path d="M425.11 39.5898H180.4C162.677 39.5898 148.31 53.957 148.31 71.6798V611.91C148.31 629.633 162.677 644 180.4 644H425.11C442.833 644 457.2 629.633 457.2 611.91V71.6798C457.2 53.957 442.833 39.5898 425.11 39.5898Z" fill="white" stroke="#002346" stroke-miterlimit="10"/>
<path d="M174.64 68.43C179.257 68.43 183 64.6871 183 60.07C183 55.4529 179.257 51.71 174.64 51.71C170.023 51.71 166.28 55.4529 166.28 60.07C166.28 64.6871 170.023 68.43 174.64 68.43Z" fill="#F2F2F2" stroke="#002346" stroke-miterlimit="10"/>
<path d="M198.47 67.1697C203.087 67.1697 206.83 63.4268 206.83 58.8097C206.83 54.1926 203.087 50.4497 198.47 50.4497C193.853 50.4497 190.11 54.1926 190.11 58.8097C190.11 63.4268 193.853 67.1697 198.47 67.1697Z" fill="#F2F2F2" stroke="#002346" stroke-miterlimit="10"/>
<path d="M246.95 20.3599H204.32V26.2099H246.95V20.3599Z" fill="#07974F" stroke="#0D2445" stroke-miterlimit="10"/>
<path d="M139.53 84.31C139.53 80.8472 136.723 78.04 133.26 78.04C129.797 78.04 126.99 80.8472 126.99 84.31V151.19C126.99 154.653 129.797 157.46 133.26 157.46C136.723 157.46 139.53 154.653 139.53 151.19V84.31Z" fill="#D2FFCE" stroke="#0D2445" stroke-miterlimit="10"/>
<path d="M139.95 170C139.95 166.537 137.143 163.73 133.68 163.73C130.217 163.73 127.41 166.537 127.41 170V236.88C127.41 240.343 130.217 243.15 133.68 243.15C137.143 243.15 139.95 240.343 139.95 236.88V170Z" fill="#D2FFCE" stroke="#0D2445" stroke-miterlimit="10"/>
<path d="M594.58 657.32C594.58 657.32 593.4 660.61 596.28 662.53H639.44C641.04 662.53 642.34 661.23 642.34 659.63V654.86L636.58 650.06H615.4L594.58 657.33V657.32Z" fill="#0D2445" stroke="#0D2445" stroke-miterlimit="10"/>
<path d="M592.44 659.65H529.1V662.53H592.44V659.65Z" fill="#0D2445" stroke="#0D2445" stroke-miterlimit="10"/>
<path d="M637.55 625.1H616.44V648.13H637.55V625.1Z" fill="#F0B1BF" stroke="#002346" stroke-linecap="round" stroke-linejoin="round"/>
<path d="M642.35 660.61H598.19C595.89 660.61 594.12 658.45 594.7 656.23C594.82 655.78 595.02 655.32 595.33 654.85L612.94 639C614.53 637.57 616.63 636.77 618.76 636.99C618.79 636.99 618.83 636.99 618.86 637C620.57 637.2 621.97 638.43 622.47 640.08C622.92 641.55 624.09 643.76 627.16 645.25C628.66 645.98 630.41 646 631.96 645.38L636.4 643.6C638.32 642.83 639.86 643.6 640.26 645.02C640.72 646.69 641.31 649.02 641.82 651.66C642.19 653.58 642.35 655.54 642.35 657.5V660.6V660.61Z" fill="#07974F" stroke="#002346" stroke-linecap="round" stroke-linejoin="round"/>
<path d="M586.68 627.02H562.69V649.09H586.68V627.02Z" fill="#F0B1BF" stroke="#002346" stroke-linecap="round" stroke-linejoin="round"/>
<path d="M560.34 636.96L531.02 652.94C531.02 652.94 528.14 654.86 529.1 659.66H592.46C592.46 659.66 592.44 643.66 586.68 642.54L564.61 646.22C564.61 646.22 569.5 634.42 560.34 636.96Z" fill="#07974F" stroke="#002346" stroke-linecap="round" stroke-linejoin="round"/>
<path d="M562.69 379.77L546.76 489.97C546.5 491.75 546.46 493.56 546.64 495.36L559.81 628.94H603.96L596.46 505.23C596.34 503.26 596.48 501.28 596.88 499.35L607.79 446.6L613.34 628.94H657.7L661.54 381.34L655.94 376.71H626.9L600.95 356.2H589.79L562.69 379.78V379.77Z" fill="#74F587" stroke="#002346" stroke-linecap="round" stroke-linejoin="round"/>
<path d="M602.04 393.81L607.8 446.6" stroke="#002346" stroke-linecap="round" stroke-linejoin="round"/>
<path d="M651.22 411.09H648.34V403.51C648.34 398.43 652.47 394.3 657.55 394.3H683.99C689.07 394.3 693.2 398.43 693.2 403.51V409.17H690.32V403.51C690.32 400.02 687.48 397.17 683.98 397.17H657.54C654.05 397.17 651.2 400.01 651.2 403.51V411.09H651.22Z" fill="white" stroke="#002346" stroke-linecap="round" stroke-linejoin="round"/>
<path d="M695.06 301.86L667.12 228.5C666.02 225.62 663.67 223.39 660.73 222.46L620.27 209.55L595.32 234.5L582.84 219.14L562.97 230.92C559.13 233.19 556.47 237.01 555.66 241.4L544.58 301.57C544 304.7 540.83 306.62 537.79 305.68L493.59 292.08L487.83 325.67L530.06 342.94C530.06 342.94 554.05 350.62 562.69 333.34V379.76H596.28L600.12 359.25L605.01 379.76H658.01V383.13C658.01 383.13 667.3 391.88 688.41 391.88L695.83 307.42C696 305.53 695.73 303.62 695.05 301.84L695.06 301.86ZM659.62 342.95L656.26 308.4L662.49 310.32L659.61 342.95H659.62Z" fill="#07974F" stroke="#002346" stroke-linecap="round" stroke-linejoin="round"/>
<path d="M576.97 222.63L574.21 233.54L580.93 236.42L574.21 250.18C574.21 250.18 581.88 276.69 599.13 308.33C599.13 308.34 599.16 308.33 599.15 308.33L591.96 251.72L586.66 229.66L582.85 219.15L576.97 222.64V222.63Z" fill="#D2FFCE" stroke="#0D2445" stroke-linecap="round" stroke-linejoin="round"/>
<path d="M588.99 210.06V215.46H599.81L613.56 206.67L608.76 193.5L607.26 182.44L599.49 177.88L588.99 210.06Z" fill="#F0B1BF" stroke="#002346" stroke-linecap="round" stroke-linejoin="round"/>
<path d="M562.69 333.35V271.94" stroke="#002346" stroke-linecap="round" stroke-linejoin="round"/>
<path d="M600.95 353.94V311.66" stroke="#002346" stroke-linecap="round" stroke-linejoin="round"/>
<path d="M642.39 271.94L659.38 309.36" stroke="#002346" stroke-linecap="round" stroke-linejoin="round"/>
<path d="M659.62 342.95L658.01 379.77" stroke="#002346" stroke-linecap="round" stroke-linejoin="round"/>
<path d="M660.73 222.46C660.73 222.46 630.24 232.53 640.13 263.75" stroke="#002346" stroke-linecap="round" stroke-linejoin="round"/>
<path d="M493.32 293.68L479.59 291.33L475.1 288.17C473.4 286.97 471.36 286.32 469.28 286.32H458.35C456.32 286.32 454.67 287.97 454.67 290C454.67 292.03 456.32 293.68 458.35 293.68H462.49C463.29 293.68 463.94 294.34 463.92 295.14L463.86 298.82C463.86 299.39 463.51 299.9 462.98 300.12C458.21 302.11 435.45 311.98 438.89 318C438.89 318 434.57 323.52 442.49 323.64C442.49 323.64 441.8 328.32 452.34 323.64C452.34 323.64 454.59 327.36 461.61 323.64L484.51 313.2H489.97L493.32 293.69V293.68Z" fill="#F0B1BF" stroke="#002346" stroke-linecap="round" stroke-linejoin="round"/>
<path d="M626.02 211.38L632.75 222.98L626.02 231.24L629.38 238.04C629.38 238.04 617.37 286.19 599.14 308.33L606.83 254.65L615.47 224.9L620.27 209.54L626.02 211.38Z" fill="#D2FFCE" stroke="#0D2445" stroke-linecap="round" stroke-linejoin="round"/>
<path d="M588.99 215.46L582.85 219.15C582.85 219.15 582.85 261.38 599.17 308.4C599.17 308.4 617.4 275.77 620.28 209.55L613.56 206.67L599.81 215.46H588.99Z" fill="white" stroke="#002346" stroke-linecap="round" stroke-linejoin="round"/>
<path d="M582.85 219.15L588.99 228.81L597.65 216.42L604.92 225.86L620.27 214.02V209.55L613.56 206.67L599.81 215.46H588.99L582.85 219.15Z" fill="#F2F2F2" stroke="#002346" stroke-linecap="round" stroke-linejoin="round"/>
<path d="M593.25 222.72L596.28 225.87L596.23 299.47L599.15 308.33C599.15 308.33 606.62 292.72 608.65 283.76L600.12 225.86L601.95 222L597.66 216.42L593.26 222.72H593.25Z" fill="#74F587" stroke="#002346" stroke-linecap="round" stroke-linejoin="round"/>
<path d="M579.821 157.807L579.811 157.81C571.247 160.074 566.14 168.852 568.404 177.417L573.89 198.164C576.154 206.728 584.933 211.835 593.497 209.571L593.507 209.568C602.071 207.304 607.178 198.526 604.914 189.961L599.428 169.214C597.164 160.65 588.385 155.543 579.821 157.807Z" fill="#F0B1BF" stroke="#002346" stroke-linecap="round" stroke-linejoin="round"/>
<path d="M635.63 471.89V508.02L620.2 499.11L620.28 427.4C620.2 426.38 620.18 425.44 620.22 424.59C620.43 420.07 622.13 417.67 623.89 416.38C626.03 414.83 629.07 415.55 630.3 417.9C632.09 421.3 632.57 425.8 632.71 428C632.76 428.83 632.76 429.32 632.76 429.32V471.88H635.64L635.63 471.89Z" fill="white" stroke="#002346" stroke-linecap="round" stroke-linejoin="round"/>
<path d="M635.63 508.02L728.72 501.3L727.31 469.71L635.63 471.89V508.02Z" fill="white" stroke="#002346" stroke-linecap="round" stroke-linejoin="round"/>
<path d="M689.514 461.494L679.975 462.382L681.576 479.578L691.115 478.69L689.514 461.494Z" fill="#07974F" stroke="#002346" stroke-linecap="round" stroke-linejoin="round"/>
<path d="M654.83 411.09H642.35V417.81H654.83V411.09Z" fill="#0D2445" stroke="#0D2445" stroke-miterlimit="10"/>
<path d="M697.06 409.17H684.58V415.89H697.06V409.17Z" fill="#0D2445" stroke="#0D2445" stroke-miterlimit="10"/>
<path d="M626.35 415.92C627.56 416.15 631.93 417.78 632.75 429.32V471.88L730.64 469.63C730.64 469.63 726.8 428.36 712.41 413.01L626.36 415.88C626.36 415.88 626.32 415.92 626.36 415.93L626.35 415.92Z" fill="#D2FFCE" stroke="#0D2445" stroke-linecap="round" stroke-linejoin="round"/>
<path d="M632.7 428L620.21 424.59C620.42 420.07 622.12 417.67 623.88 416.38C626.02 414.83 629.06 415.55 630.29 417.9C632.08 421.3 632.56 425.8 632.7 428Z" fill="#0D2445" stroke="#0D2445" stroke-miterlimit="10"/>
<path d="M658.01 383.14C658.01 383.14 649.06 390.93 650.98 396.69L654.82 394.77C655.91 394.25 658.25 393.04 658.5 394.22C658.68 395.1 658.22 395.98 657.39 396.32L653.11 398.11C651.86 398.64 650.88 399.74 650.69 401.09C650.55 402.06 650.78 403.21 651.93 404.36C651.93 404.36 653.51 406.28 658 404.36L661.53 402.16C661.53 402.16 664.41 406.28 669.21 403.4C669.21 403.4 673.05 404.36 676.89 402.44C676.89 402.44 683.61 403.4 684.57 398.6L685.93 391.88C685.93 391.88 668.26 391.88 658.01 383.13V383.14Z" fill="#F0B1BF" stroke="#002346" stroke-linecap="round" stroke-linejoin="round"/>
<path d="M442.49 323.63L461.62 313.2" stroke="#002346" stroke-linecap="round" stroke-linejoin="round"/>
<path d="M452.34 323.63L465.52 316.56" stroke="#002346" stroke-linecap="round" stroke-linejoin="round"/>
<path d="M569.52 181.08C569.52 181.08 553.27 172.6 562.96 164.54C562.96 164.54 550.82 153.62 576.65 144.58C576.65 144.58 595.51 138.39 602.8 149.01C602.8 149.01 617.61 152.05 613.28 167.06L611.73 183.69C611.53 185.31 610.23 186.57 608.61 186.72L603.82 187.17L599.24 170.64C599.24 170.64 594.36 170.21 594.7 161.13C594.7 161.13 589.44 168 582.4 166.23C582.4 166.23 575.9 175.37 567.5 174.21L569.53 181.08H569.52Z" fill="#0D2445" stroke="#0D2445" stroke-miterlimit="10"/>
<path d="M603.71 147.27L604.53 147.4C604.53 147.4 605.86 143.65 607.26 142.19L603.21 141.58C603.21 141.58 602.6 143.74 603.7 147.27H603.71Z" fill="#0D2445" stroke="#0D2445" stroke-linecap="round" stroke-linejoin="round"/>
<path d="M604.92 183.64C607.041 183.64 608.76 181.061 608.76 177.88C608.76 174.699 607.041 172.12 604.92 172.12C602.799 172.12 601.08 174.699 601.08 177.88C601.08 181.061 602.799 183.64 604.92 183.64Z" fill="#F0B1BF" stroke="#002346" stroke-linecap="round" stroke-linejoin="round"/>
<path d="M306.14 145.33C306.14 145.33 272.49 133.63 268.26 168.33C264.03 203.03 317 217.39 324.8 187.13C332.59 156.87 306.14 145.33 306.14 145.33Z" fill="#002346" stroke="#002346" stroke-miterlimit="10"/>
<path d="M360.67 165.54C360.67 165.54 370.48 155.42 368.3 139.14C366.83 128.1 362.06 124.39 362.06 124.39C362.06 124.39 370.01 109.66 347.83 109.82C325.66 109.98 312.26 120.4 312.26 120.4C312.26 120.4 302.31 115.09 297.37 126.73C292.43 138.38 296.38 155.94 296.38 155.94L360.66 165.54H360.67Z" fill="#002346" stroke="#002346" stroke-miterlimit="10"/>
<path d="M282.15 528C279.07 546.92 256.34 602.06 256.34 602.06C250.64 615.24 246.26 629.84 242.89 643.99H207.34V618.4C207.34 581.95 216.13 565.62 216.13 565.62L233.71 526.729L282.15 528Z" fill="#F0B1BF" stroke="#002346" stroke-linecap="round" stroke-linejoin="round"/>
<path d="M365.66 594.53L361.07 643.99H324.29C320.42 612.33 321.14 580.51 322.02 563C322.39 556 323.26 549.04 324.49 542.13C326.21 532.54 325.17 529.11 325.17 529.11L325.91 529.14L371.5 530.44C372.31 546.77 365.66 594.53 365.66 594.53Z" fill="#F0B1BF" stroke="#002346" stroke-linecap="round" stroke-linejoin="round"/>
<path d="M375.72 530.44L231.21 526.67C237.49 433.68 255.98 375.76 255.98 375.76H255.99C262.34 378.83 283.08 386.94 322.94 385.93C322.94 385.93 351.84 385.93 368.18 379.65C368.92 382.03 369.57 384.68 370.14 387.5C370.23 387.95 370.32 388.39 370.4 388.84C374.42 410 374.3 440.07 374.3 440.07L375.72 530.43V530.44Z" fill="#07974F" stroke="#002346" stroke-miterlimit="10"/>
<path d="M420.96 357.02C419.7 395.98 398.34 421.11 398.34 421.11C393.92 400.11 374.93 390.77 370.4 388.84C370.31 388.39 370.22 387.95 370.14 387.5L375.52 380.34C376.45 379.08 376.89 377.53 376.73 375.97L373.61 345.89C373.5 344.77 372.97 343.79 372.19 343.09C371.41 342.39 370.37 341.96 369.25 341.96C366.66 341.96 364.64 344.2 364.89 346.79L368.18 379.66C351.84 385.94 322.94 385.94 322.94 385.94C283.08 386.96 262.33 378.84 255.99 375.77H255.98C254.52 375.07 253.83 374.63 253.83 374.63C252.57 362.06 266.4 335.67 266.4 335.67C263.89 331.9 263.89 319.33 263.89 319.33L261.38 266.55C261.38 236.39 266.32 223.82 266.32 223.82C269.99 212.51 302.85 204.97 302.85 204.97L314.16 212.51L327.98 252.72L338.23 222.51L348.08 209.99L364.43 218.65C370.79 222.02 376.04 227.14 379.57 233.42L404.63 277.85C419.71 309.27 420.97 357.02 420.97 357.02H420.96Z" fill="#74F587" stroke="#002346" stroke-linecap="round" stroke-linejoin="round"/>
<path d="M418.96 284.81L388.29 297.96H379.49C379.49 297.96 373.21 309.27 374.46 324.35H396.01L425.98 338.17C425.98 338.17 434.78 340.68 434.78 335.66C434.78 335.66 441.12 337.54 442.35 331.58C442.35 331.58 442.41 331.6 442.52 331.64C447.65 333.46 451.79 326.82 447.81 323.1C447.35 322.67 446.78 322.24 446.1 321.83C446.1 321.83 451.13 318.06 444.84 314.29L413.2 298.58L423.07 293.73C425.41 292.58 426.45 289.79 425.42 287.39C424.35 284.9 421.47 283.74 418.97 284.81H418.96Z" fill="#F0B1BF" stroke="#002346" stroke-linecap="round" stroke-linejoin="round"/>
<path d="M446.09 321.84L427.24 313.04" stroke="#002346" stroke-linecap="round" stroke-linejoin="round"/>
<path d="M442.35 331.58L420.96 321.84" stroke="#002346" stroke-linecap="round" stroke-linejoin="round"/>
<path d="M434.78 335.659L416.36 326.709" stroke="#002346" stroke-linecap="round" stroke-linejoin="round"/>
<path d="M375.72 297.96H313.68L302.83 260.24" stroke="#002346" stroke-linecap="round" stroke-linejoin="round"/>
<path d="M374.46 324.35C374.46 324.35 374.46 333.19 377.96 338.37C380.33 341.87 385.51 341.4 387.35 337.6C388.63 334.96 389.54 330.81 388.78 324.36H374.45L374.46 324.35Z" fill="#0D2445" stroke="#0D2445" stroke-miterlimit="10"/>
<path d="M266.39 335.66C266.39 335.66 270.16 345.71 285.24 346.97L360.64 345.71" stroke="#002346" stroke-linecap="round" stroke-linejoin="round"/>
<path d="M293.96 207.41L287.75 220.05L300.32 222.56L294.04 235.83C294.04 235.83 317.86 253.92 327.31 267.77C327.31 267.77 310.37 242.66 302.83 204.97L293.96 207.41Z" fill="#D2FFCE" stroke="#0D2445" stroke-linecap="round" stroke-linejoin="round"/>
<path d="M348.07 210L360.64 222.57L353.1 231.37L360.64 242.52C360.64 242.52 349.77 252.45 338.87 275.21C338.87 275.21 349.33 242.67 348.07 210Z" fill="#D2FFCE" stroke="#0D2445" stroke-linecap="round" stroke-linejoin="round"/>
<path d="M364.41 255.229C364.41 255.229 375.37 277.849 367.38 297.959" stroke="#002346" stroke-linecap="round" stroke-linejoin="round"/>
<path d="M369.44 388.44L364.41 392.21C364.41 392.21 355.13 388.88 347.99 388.32C345.61 388.13 343.59 390.01 343.59 392.39C343.59 394.42 345.08 396.16 347.09 396.43C348.71 396.65 350.85 397.07 353.38 397.86C353.38 397.86 332.92 413.86 337.35 419.37C337.35 419.37 339.51 421.4 344.42 419.37C344.42 419.37 345.22 423.42 350.22 422.2C351.84 421.8 353.29 420.9 354.48 419.73L355.62 418.6C355.62 418.6 359.39 424.88 365.67 418.6L371.95 409.8C371.95 409.8 383.56 416.19 389.07 411.74L393.26 408.33C393.26 408.33 385.77 394.73 369.44 388.44Z" fill="#F0B1BF" stroke="#002346" stroke-linecap="round" stroke-linejoin="round"/>
<path d="M344.42 419.37C344.42 419.37 349.33 408.54 356.87 402.26" stroke="#002346" stroke-linecap="round" stroke-linejoin="round"/>
<path d="M355.61 418.6C355.61 418.6 358.03 410.99 364.99 405.37" stroke="#002346" stroke-linecap="round" stroke-linejoin="round"/>
<path d="M384.41 413.3C384.41 413.3 393.31 427.4 398.34 421.11C398.34 421.11 396.98 413.13 393.26 408.32L389.07 411.73C389.07 411.73 388.08 413.02 384.42 413.29L384.41 413.3Z" fill="#0D2445" stroke="#0D2445" stroke-miterlimit="10"/>
<path d="M341.79 206.23C338.02 207.49 334.25 208.74 334.25 208.74L331.74 223.82L327.97 208.74C314.15 206.23 309.12 201.2 309.12 201.2C314.15 194.92 315.16 185.44 315.16 185.44L325.45 180.3L338.22 199.63C338.02 202.46 341.79 206.23 341.79 206.23Z" fill="#F0B1BF" stroke="#002346" stroke-linecap="round" stroke-linejoin="round"/>
<path d="M336.76 281.62C309.11 245.18 302.83 204.97 302.83 204.97L309.11 201.2C309.11 201.2 314.14 206.23 327.96 208.74L331.73 223.82L334.24 208.74C334.24 208.74 338.01 207.48 341.78 206.23L348.06 210C349.32 247.7 336.75 281.63 336.75 281.63L336.76 281.62Z" fill="white" stroke="#002346" stroke-linecap="round" stroke-linejoin="round"/>
<path d="M343.939 126.592L343.929 126.59C331.778 124.685 320.383 132.991 318.478 145.142L313.953 174.01C312.048 186.161 320.354 197.555 332.505 199.46L332.514 199.462C344.665 201.367 356.06 193.061 357.965 180.91L362.491 152.042C364.396 139.891 356.09 128.497 343.939 126.592Z" fill="#F0B1BF" stroke="#002346" stroke-linecap="round" stroke-linejoin="round"/>
<path d="M309.25 159.179C309.25 159.179 328.43 169.489 343.06 153.509C355.89 139.489 353.06 138.559 353.06 138.559C354.91 139.419 357.72 141.009 360.36 143.859C364.06 147.849 365.42 152.139 365.94 154.309C369.87 146.589 368.86 141.509 368.1 138.999C367.1 135.679 364.9 132.229 360.69 129.089C353.73 123.899 350.62 117.649 350.62 117.649L316.12 121.229L310.01 155.139L309.25 159.169V159.179Z" fill="#002346" stroke="#002346" stroke-miterlimit="10"/>
<path d="M312.26 171.04C316.076 171.04 319.17 166.822 319.17 161.62C319.17 156.417 316.076 152.2 312.26 152.2C308.444 152.2 305.35 156.417 305.35 161.62C305.35 166.822 308.444 171.04 312.26 171.04Z" fill="#F0B1BF" stroke="#002346" stroke-linecap="round" stroke-linejoin="round"/>
<path d="M562.43 120.41C564.5 117.33 565.62 113.72 565.65 110.01C565.65 96.8397 551.18 86.1597 533.35 86.1597C515.52 86.1597 501.07 96.8397 501.07 110.01C501.07 123.18 515.52 133.86 533.35 133.86C542 133.86 549.84 131.35 555.63 127.26L566.76 130.09L562.44 120.41H562.43Z" fill="#74F587" stroke="#002346" stroke-linecap="round" stroke-linejoin="round"/>
<path d="M521.74 110.009C521.74 111.859 520.24 113.349 518.4 113.349C516.56 113.349 515.06 111.849 515.06 110.009C515.06 108.169 516.56 106.669 518.4 106.669C520.24 106.669 521.74 108.169 521.74 110.009Z" fill="white" stroke="#002346" stroke-miterlimit="10"/>
<path d="M533.36 113.36C535.21 113.36 536.71 111.86 536.71 110.01C536.71 108.16 535.21 106.66 533.36 106.66C531.51 106.66 530.01 108.16 530.01 110.01C530.01 111.86 531.51 113.36 533.36 113.36Z" fill="white" stroke="#002346" stroke-miterlimit="10"/>
<path d="M551.67 110.009C551.67 111.859 550.17 113.349 548.33 113.349C546.49 113.349 544.99 111.849 544.99 110.009C544.99 108.169 546.49 106.669 548.33 106.669C550.17 106.669 551.67 108.169 551.67 110.009Z" fill="white" stroke="#002346" stroke-miterlimit="10"/>
<path d="M435.83 94.8297C433.97 110.42 423.94 113.22 422.25 117.4C421.4 120.02 420.69 122.68 420.14 125.38H403.84C403.3 122.68 402.6 120.02 401.74 117.4C400.07 113.22 390.04 110.34 388.28 94.7397C387.1 84.4897 394.85 68.3197 412.1 68.3697C429.35 68.4097 437.04 84.5997 435.82 94.8397L435.83 94.8297Z" fill="#07974F" stroke="#002346" stroke-linecap="round" stroke-linejoin="round"/>
<path d="M402.81 100.58L407.68 125.7" stroke="#002346" stroke-linecap="round" stroke-linejoin="round"/>
<path d="M421.41 100.74L415.08 125.54" stroke="#002346" stroke-linecap="round" stroke-linejoin="round"/>
<path d="M401.916 124.668L401.904 129.288L422.013 129.344L422.026 124.724L401.916 124.668Z" fill="#E6E6E6" stroke="#002346" stroke-linecap="round" stroke-linejoin="round"/>
<path d="M401.961 129.368L401.952 133.188L422.062 133.237L422.071 129.417L401.961 129.368Z" fill="#E6E6E6" stroke="#002346" stroke-linecap="round" stroke-linejoin="round"/>
<path d="M401.912 133.348L401.901 137.688L422.011 137.737L422.022 133.397L401.912 133.348Z" fill="#E6E6E6" stroke="#002346" stroke-linecap="round" stroke-linejoin="round"/>
<path d="M403.4 103.24C403.4 103.24 405.38 108.9 408.08 105.63C408.08 105.63 410.43 103.08 410.06 100.63C409.94 99.8399 409.28 99.1999 408.47 99.1799C407.8 99.1599 407.08 99.5599 406.98 101.24C406.93 101.97 407.04 102.7 407.22 103.41C407.49 104.47 408.04 106.06 409.05 107.32C410.51 109.13 413.38 109.06 414.69 107.15C415.37 106.16 416 104.69 416.36 102.5C416.36 102.5 416.47 101.34 416.32 100.32C416.17 99.2399 414.67 98.9899 414.23 99.9899C413.79 100.99 413.58 102.6 414.79 104.87C415.93 106.99 419.06 107.05 420.15 104.9C420.37 104.47 420.57 103.95 420.74 103.33" stroke="#002346" stroke-linecap="round" stroke-linejoin="round"/>
<path d="M412.84 63.6V55.54" stroke="#002346" stroke-linecap="round" stroke-linejoin="round"/>
<path d="M427.65 66.9499L432.02 60.1899" stroke="#002346" stroke-linecap="round" stroke-linejoin="round"/>
<path d="M438.14 77.17L445.53 73.98" stroke="#002346" stroke-linecap="round" stroke-linejoin="round"/>
<path d="M441.81 92.5801L449.86 92.5601" stroke="#002346" stroke-linecap="round" stroke-linejoin="round"/>
<path d="M374.81 91.5801L382.86 91.5601" stroke="#002346" stroke-linecap="round" stroke-linejoin="round"/>
<path d="M380.41 72.46L387.26 76.69" stroke="#002346" stroke-linecap="round" stroke-linejoin="round"/>
<path d="M393.82 59.0801L397.85 66.0601" stroke="#002346" stroke-linecap="round" stroke-linejoin="round"/>
<path d="M378.42 110.71L385.25 106.43" stroke="#002346" stroke-linecap="round" stroke-linejoin="round"/>
<path d="M437.2 107.84L444.47 111.31" stroke="#002346" stroke-linecap="round" stroke-linejoin="round"/>
</svg>
